<?xml version="1.0" encoding="utf-8"?>
<svg version="1.1" id="Layer_1" xmlns="http://www.w3.org/2000/svg" xmlns:xlink="http://www.w3.org/1999/xlink" x="0px" y="0px"
	 viewBox="0 0 80 80" style="enable-background:new 0 0 80 80;" xml:space="preserve">
<g>
	<path d="M6.6,51.32c0-1.18,0.4-2.16,1.19-2.95c0.79-0.78,1.78-1.18,2.96-1.18c1.19,0,2.16,0.37,2.94,1.1
		c0.77,0.73,1.16,1.64,1.16,2.72c0,1.21-0.41,2.2-1.24,2.96s-1.8,1.14-2.94,1.14c-1.2,0-2.17-0.36-2.91-1.09
		C7.02,53.3,6.63,52.4,6.6,51.32z"/>
	<path d="M38.32,36.39l-9.2,12.27h12.31l-1.11,6.15H18.43l0.72-4.15l11.38-14.77l-6.23-14.42l0.64-3.49h21.53l-1.11,6.2H33.14
		l5.2,11.81L38.32,36.39z"/>
	<path d="M72.49,24.17H63.5l-5.41,30.64h-7.42l5.41-30.64h-8.86l1.11-6.2h25.27L72.49,24.17z"/>
</g>
</svg>
